<svg width="744" height="121" viewBox="0 0 744 121" fill="none" xmlns="http://www.w3.org/2000/svg">
<path d="M584.824 91.74C584.824 91.74 584.824 73.516 584.824 53.24C584.824 32.964 593.624 25.82 616.284 25.82H649.784V40.668C649.784 40.668 621.084 40.668 616.284 40.668C611.484 40.668 602.484 44.168 602.484 53.24C602.484 62.3119 602.484 91.74 602.484 91.74H584.824Z" fill="black"/>
<path d="M108.023 92.16V77.44H170.743C174.327 77.44 176.119 75.4346 176.119 71.424C176.119 67.4986 174.327 65.536 170.743 65.536H130.167C122.572 65.536 116.812 63.8293 112.887 60.416C108.962 56.9173 106.999 51.9253 106.999 45.44C106.999 38.8693 108.962 33.8346 112.887 30.336C116.898 26.752 122.658 24.96 130.167 24.96H188.535V39.68H131.063C127.394 39.68 125.559 41.472 125.559 45.056C125.559 46.848 126.071 48.256 127.095 49.28C128.119 50.304 129.442 50.816 131.063 50.816H174.071C180.727 50.816 185.804 52.5653 189.303 56.064C192.887 59.4773 194.679 64.4693 194.679 71.04C194.679 77.696 192.887 82.9013 189.303 86.656C185.719 90.3253 180.642 92.16 174.071 92.16H108.023Z" fill="black"/>
<path d="M239.366 92.16C227.931 92.16 219.014 89.344 212.614 83.712C206.214 77.9946 203.014 69.632 203.014 58.624C203.014 47.5306 206.214 39.168 212.614 33.536C219.014 27.8186 227.931 24.96 239.366 24.96H282.246V39.68H239.366C233.819 39.68 229.553 41.216 226.566 44.288C223.665 47.36 222.214 52.1386 222.214 58.624C222.214 65.024 223.665 69.76 226.566 72.832C229.553 75.904 233.819 77.44 239.366 77.44H283.526V92.16H239.366Z" fill="black"/>
<path d="M326.866 92.16C315.431 92.16 306.514 89.344 300.114 83.712C293.714 77.9946 290.514 69.632 290.514 58.624C290.514 47.5306 293.714 39.168 300.114 33.536C306.514 27.8186 315.431 24.96 326.866 24.96H382.034V45.44C382.034 58.8373 374.311 65.536 358.866 65.536H310.482C312.274 73.472 317.735 77.44 326.866 77.44H378.706V92.16H326.866ZM326.866 39.68C318.077 39.68 312.658 43.392 310.61 50.816H357.97C359.677 50.816 360.999 50.304 361.938 49.28C362.962 48.256 363.474 46.848 363.474 45.056C363.474 41.472 361.639 39.68 357.97 39.68H326.866Z" fill="black"/>
<path d="M393.574 91.52V25.6H451.046C458.555 25.6 464.017 27.4773 467.43 31.232C470.929 34.9013 472.678 39.7653 472.678 45.824V91.52H454.118V48C454.118 42.88 451.558 40.32 446.438 40.32H412.134V91.52H393.574Z" fill="black"/>
<path d="M567.226 91.52H548.666V0H567.226V91.52ZM564.026 91.52H519.866C508.431 91.52 499.514 88.704 493.114 83.072C486.714 77.44 483.514 69.2906 483.514 58.624C483.514 47.872 486.714 39.68 493.114 34.048C499.514 28.416 508.431 25.6 519.866 25.6H562.746V40.32H519.866C514.319 40.32 510.053 41.856 507.066 44.928C504.165 47.9146 502.714 52.48 502.714 58.624C502.714 64.6826 504.165 69.248 507.066 72.32C510.053 75.3066 514.319 76.8 519.866 76.8H564.026V91.52Z" fill="black"/>
<path d="M678.422 120.32V105.6H717.078C722.198 105.6 724.758 102.997 724.758 97.7919V91.52H685.206C677.697 91.52 672.193 89.6426 668.694 85.888C665.281 82.1333 663.574 77.2693 663.574 71.296V25.6H682.134V69.12C682.134 74.24 684.694 76.8 689.814 76.8H724.118V25.6H743.318V100.096C743.318 106.155 741.569 111.019 738.07 114.688C734.571 118.443 729.11 120.32 721.686 120.32H678.422Z" fill="black"/>
<path fill-rule="evenodd" clip-rule="evenodd" d="M36.352 93.02H4.76837e-07L0 59.484C0 48.3906 3.20001 40.028 9.60001 34.396C16 28.6787 24.9173 25.82 36.352 25.82H96.384V93.02H81.784V50.5C75.284 57 47 93.02 36.352 93.02ZM67.784 40.54L36.284 75.52H19.2V59.484C19.2 52.9986 20.6507 48.22 23.552 45.148C26.5387 42.076 30.8053 40.54 36.352 40.54H67.784Z" fill="black"/>
</svg>
